HIERARCHY
ROOT hip
{
  OFFSET 303.552 83.3416 -2.22149
  CHANNELS 6 Xposition Yposition Zposition Zrotation Xrotation Yrotation
  JOINT abdomen
  {
    OFFSET 0 20.6881 -0.73152
    CHANNELS 3 Zrotation Xrotation Yrotation
    JOINT chest
    {
      OFFSET 0 11.7043 -0.48768
      CHANNELS 3 Zrotation Xrotation Yrotation
      JOINT neck
      {
        OFFSET 0 22.1894 -2.19456
        CHANNELS 3 Zrotation Xrotation Yrotation
        JOINT head
        {
          OFFSET -0.24384 7.07133 1.2192
          CHANNELS 3 Zrotation Xrotation Yrotation
          JOINT leftEye
          {
            OFFSET 4.14528 8.04674 8.04672
            CHANNELS 3 Zrotation Xrotation Yrotation
            End Site
            {
              OFFSET 1 0 0
            }
          }
          JOINT rightEye
          {
            OFFSET -3.6576 8.04674 8.04672
            CHANNELS 3 Zrotation Xrotation Yrotation
            End Site
            {
              OFFSET 1 0 0
            }
          }
        }
      }
      JOINT rCollar
      {
        OFFSET -2.68224 19.2634 -4.8768
        CHANNELS 3 Zrotation Xrotation Yrotation
        JOINT rShldr
        {
          OFFSET -8.77824 -1.95073 1.46304
          CHANNELS 3 Zrotation Xrotation Yrotation
          JOINT rForeArm
          {
            OFFSET -28.1742 -1.7115 0.48768
            CHANNELS 3 Zrotation Xrotation Yrotation
            JOINT rHand
            {
              OFFSET -22.5879 0.773209 7.07136
              CHANNELS 3 Zrotation Xrotation Yrotation
              JOINT rThumb1
              {
                OFFSET -1.2192 -0.487915 3.41376
                CHANNELS 3 Zrotation Xrotation Yrotation
                JOINT rThumb2
                {
                  OFFSET -3.37035 -0.52449 3.41376
                  CHANNELS 3 Zrotation Xrotation Yrotation
                  End Site
                  {
                    OFFSET -1.78271 -1.18214 1.43049
                  }
                }
              }
              JOINT rIndex1
              {
                OFFSET -7.75947 0.938293 5.60832
                CHANNELS 3 Zrotation Xrotation Yrotation
                JOINT rIndex2
                {
                  OFFSET -2.54057 -0.884171 1.56538
                  CHANNELS 3 Zrotation Xrotation Yrotation
                  End Site
                  {
                    OFFSET -1.62519 -0.234802 1.16502
                  }
                }
              }
              JOINT rMid1
              {
                OFFSET -8.24714 1.18213 3.41376
                CHANNELS 3 Zrotation Xrotation Yrotation
                JOINT rMid2
                {
                  OFFSET -3.10165 -0.590103 1.0647
                  CHANNELS 3 Zrotation Xrotation Yrotation
                  End Site
                  {
                    OFFSET -2.48547 -0.328903 0.83742
                  }
                }
              }
              JOINT rRing1
              {
                OFFSET -8.82822 0.546677 1.51678
                CHANNELS 3 Zrotation Xrotation Yrotation
                JOINT rRing2
                {
                  OFFSET -2.60934 -0.819778 -0.0198488
                  CHANNELS 3 Zrotation Xrotation Yrotation
                  End Site
                  {
                    OFFSET -2.33842 -0.294052 0.168128
                  }
                }
              }
              JOINT rPinky1
              {
                OFFSET -8.27202 -0.0477905 -0.4584
                CHANNELS 3 Zrotation Xrotation Yrotation
                JOINT rPinky2
                {
                  OFFSET -1.82734 -0.647385 -0.700984
                  CHANNELS 3 Zrotation Xrotation Yrotation
                  End Site
                  {
                    OFFSET -1.69225 -0.51767 -0.607171
                  }
                }
              }
            }
          }
        }
      }
      JOINT lCollar
      {
        OFFSET 2.68224 19.2634 -4.8768
        CHANNELS 3 Zrotation Xrotation Yrotation
        JOINT lShldr
        {
          OFFSET 8.77824 -1.95073 1.46304
          CHANNELS 3 Zrotation Xrotation Yrotation
          JOINT lForeArm
          {
            OFFSET 28.1742 -1.7115 0.48768
            CHANNELS 3 Zrotation Xrotation Yrotation
            JOINT lHand
            {
              OFFSET 22.5879 0.773209 7.07136
              CHANNELS 3 Zrotation Xrotation Yrotation
              JOINT lThumb1
              {
                OFFSET 1.2192 -0.487915 3.41376
                CHANNELS 3 Zrotation Xrotation Yrotation
                JOINT lThumb2
                {
                  OFFSET 3.37035 -0.52449 3.41376
                  CHANNELS 3 Zrotation Xrotation Yrotation
                  End Site
                  {
                    OFFSET 1.78271 -1.18214 1.43049
                  }
                }
              }
              JOINT lIndex1
              {
                OFFSET 7.75947 0.938293 5.60832
                CHANNELS 3 Zrotation Xrotation Yrotation
                JOINT lIndex2
                {
                  OFFSET 2.54057 -0.884171 1.56538
                  CHANNELS 3 Zrotation Xrotation Yrotation
                  End Site
                  {
                    OFFSET 1.62519 -0.234802 1.16502
                  }
                }
              }
              JOINT lMid1
              {
                OFFSET 8.24714 1.18213 3.41376
                CHANNELS 3 Zrotation Xrotation Yrotation
                JOINT lMid2
                {
                  OFFSET 3.10165 -0.590103 1.0647
                  CHANNELS 3 Zrotation Xrotation Yrotation
                  End Site
                  {
                    OFFSET 2.48547 -0.328903 0.83742
                  }
                }
              }
              JOINT lRing1
              {
                OFFSET 8.82822 0.546677 1.51678
                CHANNELS 3 Zrotation Xrotation Yrotation
                JOINT lRing2
                {
                  OFFSET 2.60934 -0.819778 -0.0198488
                  CHANNELS 3 Zrotation Xrotation Yrotation
                  End Site
                  {
                    OFFSET 2.33842 -0.294052 0.168128
                  }
                }
              }
              JOINT lPinky1
              {
                OFFSET 8.27202 -0.0477905 -0.4584
                CHANNELS 3 Zrotation Xrotation Yrotation
                JOINT lPinky2
                {
                  OFFSET 1.82734 -0.647385 -0.700984
                  CHANNELS 3 Zrotation Xrotation Yrotation
                  End Site
                  {
                    OFFSET 1.69225 -0.51767 -0.607171
                  }
                }
              }
            }
          }
        }
      }
    }
  }
  JOINT rButtock
  {
    OFFSET -8.77824 4.35084 1.2192
    CHANNELS 3 Zrotation Xrotation Yrotation
    JOINT rThigh
    {
      OFFSET 0 -1.70687 -2.19456
      CHANNELS 3 Zrotation Xrotation Yrotation
      JOINT rShin
      {
        OFFSET 0 -36.8199 0.73152
        CHANNELS 3 Zrotation Xrotation Yrotation
        JOINT rFoot
        {
          OFFSET 0.73152 -45.1104 -5.12064
          CHANNELS 3 Zrotation Xrotation Yrotation
          End Site
          {
            OFFSET -1.1221 -3.69964 12.103
          }
        }
      }
    }
  }
  JOINT lButtock
  {
    OFFSET 8.77824 4.35084 1.2192
    CHANNELS 3 Zrotation Xrotation Yrotation
    JOINT lThigh
    {
      OFFSET 0 -1.70687 -2.19456
      CHANNELS 3 Zrotation Xrotation Yrotation
      JOINT lShin
      {
        OFFSET 0 -36.8199 0.73152
        CHANNELS 3 Zrotation Xrotation Yrotation
        JOINT lFoot
        {
          OFFSET -0.73152 -45.1104 -5.12064
          CHANNELS 3 Zrotation Xrotation Yrotation
          End Site
          {
            OFFSET 1.1221 -3.69964 12.103
          }
        }
      }
    }
  }
}
MOTION
Frames:	6
Frame Time:	0.00833333
-116.726 68.546 11.2116 -17.5985 -4.43758 76.4666 -2.56535 22.0375 12.7884 -1.10505 -4.05443 3.53635 5.96783 -14.7551 3.08419 -5.89197 0.369173 3.01537 -0 0 0 -0 0 0 5.59285e-014 7.75624e-012 1.35422e-014 35.3467 40.2736 54.0731 -28.1754 -31.7299 69.9679 -0.439628 -18.507 -2.69643 -1.30286e-009 2.59302e-009 2.30361e-009 -2.2793e-009 4.47303e-009 3.95926e-009 -1.30285e-009 2.59302e-009 2.3036e-009 7.73091 5.47488 0.417314 -1.30286e-009 2.59302e-009 2.30361e-009 2.90554 0.965183 0.102902 -1.30285e-009 2.59302e-009 2.30361e-009 10.2786 0.731801 0.0259123 -1.30286e-009 2.59303e-009 2.30361e-009 2.22167 -0.733487 -0.20892 5.57674e-014 7.75623e-012 1.33776e-014 -122.275 55.2666 75.9919 25.3433 -21.8519 -54.2133 1.69621 -34.2727 5.4961 -2.16285e-009 -3.15325e-010 3.24574e-009 -3.81182e-009 -5.49853e-010 5.54966e-009 -2.16285e-009 -3.15322e-010 3.24575e-009 -7.73091 5.47488 -0.417314 -2.16285e-009 -3.15322e-010 3.24574e-009 -2.90554 0.965183 -0.102902 -2.16285e-009 -3.15324e-010 3.24574e-009 -10.2786 0.731801 -0.0259123 -2.16284e-009 -3.15322e-010 3.24573e-009 -2.22167 -0.733487 0.20892 -2.03217e-016 0 -3.88251e-019 0.24685 14.2832 0.763626 0.200156 18.8348 1.72686 -4.90186 -28.9094 -9.69888 2.03217e-016 0 3.88251e-019 45.6901 -54.9568 49.9948 3.04785 75.9391 -4.10367 3.21748 -15.4152 6.43571 
-115.375 68.5072 11.0034 -18.1447 -3.82882 76.4874 -3.67139 21.6401 12.8097 -1.18013 -3.72697 3.49457 5.90804 -14.624 3.11404 -5.60596 -0.555974 3.0708 -0 0 0 -0 0 0 -1.02617e-013 2.46738e-012 2.85978e-014 34.851 40.8004 53.0603 -28.2498 -32.3453 70.9647 -0.405105 -17.8077 -2.58731 -9.46673e-010 1.769e-009 1.54589e-009 -1.65447e-009 3.05283e-009 2.656e-009 -9.46669e-010 1.769e-009 1.54588e-009 7.73091 5.47488 0.417314 -9.46674e-010 1.769e-009 1.54589e-009 2.90554 0.965183 0.102902 -9.46667e-010 1.769e-009 1.54589e-009 10.2786 0.731801 0.0259123 -9.46677e-010 1.769e-009 1.54589e-009 2.22167 -0.733487 -0.20892 -1.02785e-013 2.46736e-012 2.84219e-014 -119.529 55.4905 73.4112 25.343 -21.8519 -54.2028 1.77442 -34.9344 5.63395 -1.49331e-009 -2.26299e-010 2.8689e-009 -2.64809e-009 -3.96217e-010 4.91688e-009 -1.49332e-009 -2.26297e-010 2.8689e-009 -7.73091 5.47488 -0.417314 -1.49331e-009 -2.26298e-010 2.8689e-009 -2.90554 0.965183 -0.102902 -1.49332e-009 -2.26299e-010 2.8689e-009 -10.2786 0.731801 -0.0259123 -1.49331e-009 -2.26297e-010 2.86889e-009 -2.22167 -0.733487 0.20892 -2.03217e-016 0 -3.88251e-019 -0.330698 13.447 0.925191 0.220259 20.5552 1.71545 -4.87401 -26.8535 -10.0528 2.03217e-016 0 3.88251e-019 42.6084 -54.241 47.7183 2.82886 75.0919 -3.86414 3.29164 -16.9582 6.3028 
-114.041 68.5132 10.7795 -18.587 -3.30554 76.6292 -4.65173 21.4493 12.725 -1.31545 -3.46641 3.42763 5.78771 -14.4961 3.12519 -5.14571 -1.47659 3.13739 -0 0 0 -0 0 0 -1.78827e-013 -1.16348e-012 2.45499e-014 34.6623 41.5982 51.9023 -28.2941 -32.8295 71.7937 -0.386155 -17.3962 -2.5237 -6.60172e-010 1.25677e-009 1.13803e-009 -1.15462e-009 2.17172e-009 1.95648e-009 -6.60169e-010 1.25677e-009 1.13803e-009 7.73091 5.47488 0.417314 -6.60173e-010 1.25677e-009 1.13803e-009 2.90554 0.965183 0.102902 -6.60167e-010 1.25677e-009 1.13803e-009 10.2786 0.731801 0.0259123 -6.60176e-010 1.25677e-009 1.13803e-009 2.22167 -0.733487 -0.20892 -1.78997e-013 -1.1635e-012 2.43511e-014 -116.438 55.8989 70.3314 25.32 -21.8004 -54.1076 1.85513 -35.5973 5.77414 -1.00708e-009 -1.64959e-010 2.58204e-009 -1.80333e-009 -2.90719e-010 4.43423e-009 -1.00708e-009 -1.64958e-010 2.58204e-009 -7.73091 5.47488 -0.417314 -1.00708e-009 -1.64959e-010 2.58204e-009 -2.90554 0.965183 -0.102902 -1.00708e-009 -1.6496e-010 2.58204e-009 -10.2786 0.731801 -0.0259123 -1.00707e-009 -1.64958e-010 2.58203e-009 -2.22167 -0.733487 0.20892 -2.03217e-016 0 -3.88251e-019 -0.740461 12.4349 1.22583 0.215588 22.6641 1.7001 -4.84316 -24.4809 -10.5675 2.03217e-016 0 3.88251e-019 39.5783 -53.5323 45.3708 2.62793 74.2188 -3.63818 3.33675 -18.2483 6.17081 
-112.673 68.5929 10.5994 -18.9141 -2.91979 76.884 -5.45661 21.5053 12.5161 -1.57156 -3.26891 3.33326 5.58317 -14.3683 3.11532 -4.39879 -2.42424 3.22838 -0 0 0 -0 0 0 -1.25234e-013 -2.50699e-012 -1.44891e-014 34.8449 42.7143 50.629 -28.3224 -33.2022 72.4387 -0.384132 -17.3397 -2.51516 -4.48856e-010 1.2675e-009 1.36569e-009 -7.93361e-010 2.19617e-009 2.35457e-009 -4.48853e-010 1.2675e-009 1.36568e-009 7.73091 5.47488 0.417314 -4.48856e-010 1.2675e-009 1.36569e-009 2.90554 0.965183 0.102902 -4.4885e-010 1.2675e-009 1.36568e-009 10.2786 0.731801 0.0259123 -4.48859e-010 1.2675e-009 1.36568e-009 2.22167 -0.733487 -0.20892 -1.25394e-013 -2.50701e-012 -1.4733e-014 -112.818 56.4891 66.5293 25.265 -21.677 -53.8991 1.96398 -36.4624 5.96034 -8.17359e-010 -1.50159e-010 2.43632e-009 -1.4746e-009 -2.66289e-010 4.18692e-009 -8.17362e-010 -1.50158e-010 2.43632e-009 -7.73091 5.47488 -0.417314 -8.17359e-010 -1.50159e-010 2.43632e-009 -2.90554 0.965183 -0.102902 -8.17362e-010 -1.50159e-010 2.43632e-009 -10.2786 0.731801 -0.0259123 -8.17353e-010 -1.50158e-010 2.43632e-009 -2.22167 -0.733487 0.20892 -2.03217e-016 0 -3.88251e-019 -0.887176 11.2853 1.76277 0.184627 25.15 1.67899 -4.91519 -21.7373 -11.586 2.03217e-016 0 3.88251e-019 36.6112 -52.8153 42.9229 2.434 73.2702 -3.41421 3.35833 -19.2496 6.05057 
-111.225 68.6823 10.3902 -19.1803 -2.63811 77.2134 -6.1025 21.7238 12.1907 -1.911 -3.10059 3.21453 5.31448 -14.2276 3.09727 -3.45348 -3.43839 3.35272 -0 0 0 -0 0 0 5.46146e-015 -2.90955e-012 -7.34354e-014 35.3534 44.1174 49.1629 -28.3454 -33.5055 72.9389 -0.388872 -17.4313 -2.52949 -2.17926e-010 1.52172e-009 1.89193e-009 -4.02504e-010 2.64303e-009 3.26911e-009 -2.17922e-010 1.52172e-009 1.89193e-009 7.73091 5.47488 0.417314 -2.17926e-010 1.52172e-009 1.89193e-009 2.90554 0.965183 0.102902 -2.17919e-010 1.52172e-009 1.89193e-009 10.2786 0.731801 0.0259123 -2.17927e-010 1.52172e-009 1.89193e-009 2.22167 -0.733487 -0.20892 5.31986e-015 -2.90955e-012 -7.37398e-014 -108.528 57.0882 61.7942 25.1756 -21.4785 -53.5715 2.10914 -37.5443 6.2006 -7.15692e-010 -1.51939e-010 2.22844e-009 -1.29676e-009 -2.70683e-010 3.82957e-009 -7.15694e-010 -1.51939e-010 2.22844e-009 -7.73091 5.47488 -0.417314 -7.15692e-010 -1.51939e-010 2.22844e-009 -2.90554 0.965183 -0.102902 -7.15697e-010 -1.51939e-010 2.22844e-009 -10.2786 0.731801 -0.0259123 -7.15686e-010 -1.5194e-010 2.22843e-009 -2.22167 -0.733487 0.20892 -2.03217e-016 0 -3.88251e-019 -0.816594 9.96762 2.4288 0.137497 27.9857 1.65402 -4.94217 -18.6636 -12.9149 2.03217e-016 0 3.88251e-019 33.6643 -52.0351 40.3657 2.2451 72.2172 -3.19135 3.38002 -20.1266 5.9605 
-109.74 68.7552 10.1768 -19.3758 -2.3774 77.631 -6.68393 22.0773 11.7818 -2.22547 -2.99545 3.07406 5.02033 -14.0906 3.06674 -2.49375 -4.41825 3.47432 -0 0 0 -0 0 0 1.45978e-013 -2.77734e-012 -1.27855e-013 36.1906 45.7277 47.4246 -28.3609 -33.706 73.2546 -0.400174 -17.6752 -2.56721 -2.61048e-011 1.75389e-009 2.32675e-009 -7.75787e-011 3.05009e-009 4.02479e-009 -2.60996e-011 1.75389e-009 2.32675e-009 7.73091 5.47488 0.417314 -2.61044e-011 1.75389e-009 2.32675e-009 2.90554 0.965183 0.102902 -2.60966e-011 1.75389e-009 2.32675e-009 10.2786 0.731801 0.0259123 -2.61048e-011 1.75389e-009 2.32675e-009 2.22167 -0.733487 -0.20892 1.45857e-013 -2.77733e-012 -1.28217e-013 -103.835 57.5555 56.4472 25.0704 -21.2479 -53.196 2.22809 -38.3793 6.39186 -6.037e-010 -1.50351e-010 1.99576e-009 -1.1003e-009 -2.68991e-010 3.42953e-009 -6.03702e-010 -1.50352e-010 1.99576e-009 -7.73091 5.47488 -0.417314 -6.03701e-010 -1.50351e-010 1.99576e-009 -2.90554 0.965183 -0.102902 -6.03707e-010 -1.50351e-010 1.99576e-009 -10.2786 0.731801 -0.0259123 -6.03694e-010 -1.50353e-010 1.99575e-009 -2.22167 -0.733487 0.20892 -2.03217e-016 0 -3.88251e-019 -0.663854 8.41859 3.0794 0.0735889 31.2176 1.63157 -4.671 -15.3733 -13.9284 2.03217e-016 0 3.88251e-019 30.7625 -51.2282 37.7689 2.08506 71.1931 -2.99364 3.3785 -20.8356 5.85797 
